<svg id="Layer_1" data-name="Layer 1" xmlns="http://www.w3.org/2000/svg" viewBox="0 0 474 275.74"><defs><style>.cls-1{fill:#fbb276;}.cls-2{fill:#f79a6f;}.cls-3{fill:#f48268;}.cls-4{fill:#e26662;}.cls-5{fill:#d76562;}.cls-6{fill:#bf6264;}.cls-7{fill:#a76065;}.cls-8{fill:#8f5d67;}.cls-9{fill:#775b68;}.cls-10{fill:#6a5a68;}.cls-11{fill:#fff;}</style></defs><polygon class="cls-1" points="474 221.41 356.48 275.74 237 237.52 351.05 183.53 474 221.41"/><polygon class="cls-2" points="467.6 180.5 361.3 254.41 237 237.52 339.94 164.55 467.6 180.5"/><polygon class="cls-3" points="454.2 141.32 362.35 232.57 237 237.51 325.71 147.78 454.2 141.32"/><polygon class="cls-4" points="434.2 105.07 359.58 210.87 237 237.51 308.78 133.74 434.2 105.07"/><polygon class="cls-5" points="408.2 72.84 353.1 189.99 237 237.51 289.67 122.85 408.2 72.84"/><polygon class="cls-6" points="377 45.61 343.08 170.55 237 237.51 268.95 115.45 377 45.61"/><polygon class="cls-7" points="341.55 24.21 329.84 153.15 237 237.51 247.27 111.75 341.55 24.21"/><polygon class="cls-8" points="302.93 9.3 313.78 138.31 237 237.51 225.28 111.88 302.93 9.3"/><polygon class="cls-9" points="262.3 1.32 295.39 126.49 237 237.52 203.64 115.82 262.3 1.32"/><polygon class="cls-1" points="0 221.41 117.52 275.74 237 237.52 122.95 183.53 0 221.41"/><polygon class="cls-2" points="6.4 180.5 112.7 254.41 237 237.52 134.06 164.55 6.4 180.5"/><polygon class="cls-3" points="19.8 141.32 111.65 232.57 237 237.51 148.29 147.78 19.8 141.32"/><polygon class="cls-4" points="39.8 105.07 114.42 210.87 237 237.51 165.22 133.74 39.8 105.07"/><polygon class="cls-5" points="65.8 72.84 120.91 189.99 237 237.51 184.33 122.85 65.8 72.84"/><polygon class="cls-6" points="97 45.61 130.92 170.55 237 237.51 205.04 115.45 97 45.61"/><polygon class="cls-7" points="132.45 24.21 144.16 153.15 237 237.51 226.73 111.75 132.45 24.21"/><polygon class="cls-8" points="171.07 9.3 160.22 138.31 237 237.51 248.72 111.88 171.07 9.3"/><polygon class="cls-9" points="211.71 1.32 178.61 126.49 237 237.52 270.36 115.82 211.71 1.32"/><polygon class="cls-10" points="237 0 265.19 118.76 237 237.52 206.51 121.05 237 0"/><path class="cls-11" d="M150.85,366.85V305.79h12.81v61.06Z" transform="translate(-69 -157.17)"/><path class="cls-11" d="M166.15,366.85v-45.4h11.1l.34,5.84a14.53,14.53,0,0,1,5.46-5.2,17.35,17.35,0,0,1,16.69.43,15.64,15.64,0,0,1,5.8,6.75,24,24,0,0,1,2.07,10.32v27.26h-12V341.14a11.7,11.7,0,0,0-2.15-7.44,7.2,7.2,0,0,0-5.94-2.71,9.12,9.12,0,0,0-4.81,1.25,8.85,8.85,0,0,0-3.27,3.48,10.56,10.56,0,0,0-1.21,5.08v26.05Z" transform="translate(-69 -157.17)"/><path class="cls-11" d="M221.71,366.85l-17-45.4h13.16L228,354.13l10.32-32.68H251l-17,45.4Z" transform="translate(-69 -157.17)"/><path class="cls-11" d="M269.27,368.14a24,24,0,0,1-9.33-1.76,21.43,21.43,0,0,1-7.36-5,22.82,22.82,0,0,1-4.81-7.65,26.44,26.44,0,0,1-1.72-9.68,25.65,25.65,0,0,1,1.72-9.46,23.17,23.17,0,0,1,4.77-7.61,21.84,21.84,0,0,1,16.13-6.83,23.13,23.13,0,0,1,9.07,1.72,19.83,19.83,0,0,1,7,4.9,22.16,22.16,0,0,1,4.51,7.57,28.58,28.58,0,0,1,1.59,9.8v3H258.26a13.71,13.71,0,0,0,3.7,7.95,10.06,10.06,0,0,0,7.39,2.89,11.06,11.06,0,0,0,5.64-1.47,11.46,11.46,0,0,0,4.17-4.21l10.75,3.44a17.26,17.26,0,0,1-4.65,6.62,22,22,0,0,1-7.22,4.26A25.49,25.49,0,0,1,269.27,368.14Zm-.6-38.7A9.31,9.31,0,0,0,262,332a12.73,12.73,0,0,0-3.57,7.06h20a12.18,12.18,0,0,0-3.31-7.06A8.89,8.89,0,0,0,268.67,329.44Z" transform="translate(-69 -157.17)"/><path class="cls-11" d="M310.38,368.14a23.53,23.53,0,0,1-8.73-1.54,18.53,18.53,0,0,1-6.63-4.39,15.31,15.31,0,0,1-3.74-6.71l10.84-2.32a7.86,7.86,0,0,0,3.1,4.21,9.06,9.06,0,0,0,5.33,1.55,8.34,8.34,0,0,0,4.81-1.29,4.05,4.05,0,0,0,1.9-3.52,3.77,3.77,0,0,0-1.68-3.14,13.67,13.67,0,0,0-5.55-1.94l-2.41-.43q-7.39-1.29-11.22-4.81a11.65,11.65,0,0,1-3.83-8.95,13.3,13.3,0,0,1,2.24-7.61,15.12,15.12,0,0,1,6.19-5.2,20.94,20.94,0,0,1,9.12-1.89,22.14,22.14,0,0,1,8.3,1.5,16.55,16.55,0,0,1,6.23,4.26,15,15,0,0,1,3.44,6.62l-10.75,2.24a8.14,8.14,0,0,0-2.79-4,7.32,7.32,0,0,0-4.52-1.46,7.07,7.07,0,0,0-4.38,1.29,3.92,3.92,0,0,0-1.72,3.27,3.4,3.4,0,0,0,1.67,2.88,15.17,15.17,0,0,0,5.72,1.85l2.41.43q7.31,1.29,11.18,4.86a11.8,11.8,0,0,1,3.87,9.07,14,14,0,0,1-1.33,6.11,14.34,14.34,0,0,1-3.83,4.81,18,18,0,0,1-5.85,3.19A23.39,23.39,0,0,1,310.38,368.14Z" transform="translate(-69 -157.17)"/><path class="cls-11" d="M352,368.14a16.83,16.83,0,0,1-8.13-1.84,12.71,12.71,0,0,1-5.24-5.38,18.25,18.25,0,0,1-1.85-8.6V331.16H329v-9.71h7.74V306h12v15.48H361.2v9.71H348.82v19.7a8.07,8.07,0,0,0,1.37,5,5,5,0,0,0,4.22,1.76,12.57,12.57,0,0,0,3.14-.43,19.45,19.45,0,0,0,3.22-1.12l2.15,9a20.53,20.53,0,0,1-10.92,3Z" transform="translate(-69 -157.17)"/><path class="cls-11" d="M377.46,309.15a6.86,6.86,0,0,1-.91,3.52,6.61,6.61,0,0,1-2.49,2.46,7.2,7.2,0,0,1-7,0,6.61,6.61,0,0,1-2.49-2.46,7.35,7.35,0,0,1,0-7.05,6.58,6.58,0,0,1,2.49-2.45,7.2,7.2,0,0,1,7,0,6.58,6.58,0,0,1,2.49,2.45A6.9,6.9,0,0,1,377.46,309.15Zm-12.9,57.7v-45.4h12v45.4Z" transform="translate(-69 -157.17)"/><path class="cls-11" d="M394.66,366.85l-17-45.4h13.16l10.14,32.68,10.32-32.68H424l-17,45.4Z" transform="translate(-69 -157.17)"/><path class="cls-11" d="M442.21,368.14a24.08,24.08,0,0,1-9.33-1.76,21.3,21.3,0,0,1-7.35-5,22.84,22.84,0,0,1-4.82-7.65,26.44,26.44,0,0,1-1.72-9.68,25.65,25.65,0,0,1,1.72-9.46,23.36,23.36,0,0,1,4.78-7.61,21.77,21.77,0,0,1,7.18-5,22.11,22.11,0,0,1,8.94-1.8,23.09,23.09,0,0,1,9.07,1.72,19.74,19.74,0,0,1,7,4.9,22.18,22.18,0,0,1,4.52,7.57,28.58,28.58,0,0,1,1.59,9.8v3H431.2a13.71,13.71,0,0,0,3.7,7.95,10.09,10.09,0,0,0,7.4,2.89,11,11,0,0,0,5.63-1.47,11.46,11.46,0,0,0,4.17-4.21l10.75,3.44a17.34,17.34,0,0,1-4.64,6.62,22.05,22.05,0,0,1-7.23,4.26A25.45,25.45,0,0,1,442.21,368.14Zm-.6-38.7A9.27,9.27,0,0,0,435,332a12.73,12.73,0,0,0-3.57,7.06h20A12.12,12.12,0,0,0,448.1,332,8.89,8.89,0,0,0,441.61,329.44Z" transform="translate(-69 -157.17)"/></svg>